<mxfile host="app.diagrams.net" modified="2020-12-17T03:03:43.273Z" agent="5.0 (Windows)" etag="JHTBfHOgOKkm5nFd3z1A" version="14.0.4" type="github">
  <diagram name="Page-1" id="5f0bae14-7c28-e335-631c-24af17079c00">
    <mxGraphModel dx="1730" dy="912" grid="1" gridSize="10" guides="1" tooltips="1" connect="1" arrows="1" fold="1" page="1" pageScale="1" pageWidth="1100" pageHeight="850" background="#ffffff" math="0" shadow="0">
      <root>
        <mxCell id="0" />
        <mxCell id="1" parent="0" />
        <mxCell id="39150e848f15840c-3" value="&lt;div&gt;Client Process&lt;/div&gt;&lt;div&gt;&lt;br&gt;&lt;/div&gt;" style="verticalAlign=top;align=left;spacingTop=8;spacingLeft=2;spacingRight=12;shape=cube;size=10;direction=south;fontStyle=4;html=1;rounded=0;shadow=0;comic=0;labelBackgroundColor=none;strokeWidth=1;fontFamily=Verdana;fontSize=12" parent="1" vertex="1">
          <mxGeometry x="90" y="380" width="720" height="400" as="geometry" />
        </mxCell>
        <mxCell id="Yd3JvetM3iYtgjSBkwo9-7" value="Legion" style="verticalAlign=top;align=left;spacingTop=8;spacingLeft=2;spacingRight=12;shape=cube;size=10;direction=south;fontStyle=4;html=1;" vertex="1" parent="1">
          <mxGeometry x="130" y="425" width="640" height="185" as="geometry" />
        </mxCell>
        <mxCell id="39150e848f15840c-2" value="Server Process" style="verticalAlign=top;align=left;spacingTop=8;spacingLeft=2;spacingRight=12;shape=cube;size=10;direction=south;fontStyle=4;html=1;rounded=0;shadow=0;comic=0;labelBackgroundColor=none;strokeWidth=1;fontFamily=Verdana;fontSize=12" parent="1" vertex="1">
          <mxGeometry x="40" y="40" width="980" height="300" as="geometry" />
        </mxCell>
        <mxCell id="39150e848f15840c-7" value="Local Com." style="shape=component;align=left;spacingLeft=36;rounded=0;shadow=0;comic=0;labelBackgroundColor=none;strokeWidth=1;fontFamily=Verdana;fontSize=12;html=1;" parent="1" vertex="1">
          <mxGeometry x="250" y="230" width="120" height="60" as="geometry" />
        </mxCell>
        <mxCell id="39150e848f15840c-10" value="API" style="shape=component;align=left;spacingLeft=36;rounded=0;shadow=0;comic=0;labelBackgroundColor=none;strokeWidth=1;fontFamily=Verdana;fontSize=12;html=1;" parent="1" vertex="1">
          <mxGeometry x="270" y="520" width="120" height="60" as="geometry" />
        </mxCell>
        <mxCell id="Yd3JvetM3iYtgjSBkwo9-1" value="Thread 1" style="shape=component;align=left;spacingLeft=36;rounded=0;shadow=0;comic=0;labelBackgroundColor=none;strokeWidth=1;fontFamily=Verdana;fontSize=12;html=1;" vertex="1" parent="1">
          <mxGeometry x="150" y="700" width="120" height="60" as="geometry" />
        </mxCell>
        <mxCell id="Yd3JvetM3iYtgjSBkwo9-2" value="Config" style="shape=component;align=left;spacingLeft=36;rounded=0;shadow=0;comic=0;labelBackgroundColor=none;strokeWidth=1;fontFamily=Verdana;fontSize=12;html=1;" vertex="1" parent="1">
          <mxGeometry x="410" y="460" width="120" height="60" as="geometry" />
        </mxCell>
        <mxCell id="Yd3JvetM3iYtgjSBkwo9-3" value="Spawner" style="shape=component;align=left;spacingLeft=36;rounded=0;shadow=0;comic=0;labelBackgroundColor=none;strokeWidth=1;fontFamily=Verdana;fontSize=12;html=1;" vertex="1" parent="1">
          <mxGeometry x="560" y="520" width="120" height="60" as="geometry" />
        </mxCell>
        <mxCell id="Yd3JvetM3iYtgjSBkwo9-8" value="Thread 2" style="shape=component;align=left;spacingLeft=36;rounded=0;shadow=0;comic=0;labelBackgroundColor=none;strokeWidth=1;fontFamily=Verdana;fontSize=12;html=1;" vertex="1" parent="1">
          <mxGeometry x="350" y="700" width="120" height="60" as="geometry" />
        </mxCell>
        <mxCell id="Yd3JvetM3iYtgjSBkwo9-9" value="Thread 3" style="shape=component;align=left;spacingLeft=36;rounded=0;shadow=0;comic=0;labelBackgroundColor=none;strokeWidth=1;fontFamily=Verdana;fontSize=12;html=1;" vertex="1" parent="1">
          <mxGeometry x="480" y="700" width="120" height="60" as="geometry" />
        </mxCell>
        <mxCell id="Yd3JvetM3iYtgjSBkwo9-10" value="Thread N" style="shape=component;align=left;spacingLeft=36;rounded=0;shadow=0;comic=0;labelBackgroundColor=none;strokeWidth=1;fontFamily=Verdana;fontSize=12;html=1;" vertex="1" parent="1">
          <mxGeometry x="660" y="700" width="120" height="60" as="geometry" />
        </mxCell>
        <mxCell id="Yd3JvetM3iYtgjSBkwo9-12" value="message" style="endArrow=open;endSize=12;dashed=1;html=1;exitX=0.5;exitY=0;exitDx=0;exitDy=0;entryX=0.5;entryY=1;entryDx=0;entryDy=0;" edge="1" parent="1" source="Yd3JvetM3iYtgjSBkwo9-1" target="39150e848f15840c-10">
          <mxGeometry width="160" relative="1" as="geometry">
            <mxPoint x="220" y="640" as="sourcePoint" />
            <mxPoint x="380" y="640" as="targetPoint" />
          </mxGeometry>
        </mxCell>
        <mxCell id="Yd3JvetM3iYtgjSBkwo9-17" value="" style="endArrow=classic;html=1;entryX=0.692;entryY=0.05;entryDx=0;entryDy=0;entryPerimeter=0;exitX=0.675;exitY=1;exitDx=0;exitDy=0;exitPerimeter=0;" edge="1" parent="1" source="Yd3JvetM3iYtgjSBkwo9-3" target="Yd3JvetM3iYtgjSBkwo9-8">
          <mxGeometry width="50" height="50" relative="1" as="geometry">
            <mxPoint x="870" y="670" as="sourcePoint" />
            <mxPoint x="570" y="630" as="targetPoint" />
          </mxGeometry>
        </mxCell>
        <mxCell id="Yd3JvetM3iYtgjSBkwo9-18" value="" style="endArrow=classic;html=1;entryX=0.5;entryY=0;entryDx=0;entryDy=0;exitX=0.667;exitY=1.028;exitDx=0;exitDy=0;exitPerimeter=0;" edge="1" parent="1" source="Yd3JvetM3iYtgjSBkwo9-3" target="Yd3JvetM3iYtgjSBkwo9-9">
          <mxGeometry width="50" height="50" relative="1" as="geometry">
            <mxPoint x="642" y="581" as="sourcePoint" />
            <mxPoint x="433.03999999999996" y="703" as="targetPoint" />
          </mxGeometry>
        </mxCell>
        <mxCell id="Yd3JvetM3iYtgjSBkwo9-19" value="" style="endArrow=classic;html=1;entryX=0.5;entryY=0;entryDx=0;entryDy=0;exitX=0.675;exitY=1;exitDx=0;exitDy=0;exitPerimeter=0;" edge="1" parent="1" source="Yd3JvetM3iYtgjSBkwo9-3" target="Yd3JvetM3iYtgjSBkwo9-10">
          <mxGeometry width="50" height="50" relative="1" as="geometry">
            <mxPoint x="641.04" y="587" as="sourcePoint" />
            <mxPoint x="443.03999999999996" y="713" as="targetPoint" />
          </mxGeometry>
        </mxCell>
        <mxCell id="Yd3JvetM3iYtgjSBkwo9-20" value="" style="endArrow=classic;startArrow=classic;html=1;" edge="1" parent="1" source="39150e848f15840c-10" target="Yd3JvetM3iYtgjSBkwo9-3">
          <mxGeometry width="50" height="50" relative="1" as="geometry">
            <mxPoint x="460" y="600" as="sourcePoint" />
            <mxPoint x="510" y="550" as="targetPoint" />
          </mxGeometry>
        </mxCell>
        <mxCell id="Yd3JvetM3iYtgjSBkwo9-25" value="" style="endArrow=none;html=1;edgeStyle=orthogonalEdgeStyle;exitX=0.567;exitY=0.007;exitDx=0;exitDy=0;exitPerimeter=0;entryX=0;entryY=0.3;entryDx=0;entryDy=0;" edge="1" parent="1" source="39150e848f15840c-10" target="Yd3JvetM3iYtgjSBkwo9-2">
          <mxGeometry relative="1" as="geometry">
            <mxPoint x="300" y="510" as="sourcePoint" />
            <mxPoint x="460" y="510" as="targetPoint" />
            <Array as="points">
              <mxPoint x="338" y="480" />
              <mxPoint x="410" y="480" />
            </Array>
          </mxGeometry>
        </mxCell>
        <mxCell id="Yd3JvetM3iYtgjSBkwo9-28" value="" style="endArrow=none;html=1;edgeStyle=orthogonalEdgeStyle;exitX=1;exitY=0.333;exitDx=0;exitDy=0;exitPerimeter=0;entryX=0.556;entryY=0.039;entryDx=0;entryDy=0;entryPerimeter=0;" edge="1" parent="1" source="Yd3JvetM3iYtgjSBkwo9-2" target="Yd3JvetM3iYtgjSBkwo9-3">
          <mxGeometry relative="1" as="geometry">
            <mxPoint x="560" y="480" as="sourcePoint" />
            <mxPoint x="720" y="480" as="targetPoint" />
            <Array as="points">
              <mxPoint x="627" y="480" />
              <mxPoint x="627" y="522" />
            </Array>
          </mxGeometry>
        </mxCell>
        <mxCell id="Yd3JvetM3iYtgjSBkwo9-32" value="" style="endArrow=open;endSize=12;dashed=1;html=1;exitX=0.392;exitY=0.017;exitDx=0;exitDy=0;exitPerimeter=0;entryX=0.567;entryY=1.007;entryDx=0;entryDy=0;entryPerimeter=0;" edge="1" parent="1" source="39150e848f15840c-10" target="39150e848f15840c-7">
          <mxGeometry width="160" relative="1" as="geometry">
            <mxPoint x="170" y="290" as="sourcePoint" />
            <mxPoint x="330" y="290" as="targetPoint" />
          </mxGeometry>
        </mxCell>
      </root>
    </mxGraphModel>
  </diagram>
</mxfile>
